<svg width="1631" height="331" viewBox="0 0 1631 331" fill="none" xmlns="http://www.w3.org/2000/svg">
<path d="M383.274 265V66.2528H514.866V100.898H425.294V148.255H506.132V182.9H425.294V265H383.274ZM583.695 66.2528V265H542.354V66.2528H583.695ZM684.161 267.911C669.086 267.911 656.05 264.709 645.052 258.304C634.118 251.834 625.675 242.841 619.723 231.326C613.771 219.745 610.795 206.32 610.795 191.052C610.795 175.654 613.771 162.197 619.723 150.682C625.675 139.101 634.118 130.108 645.052 123.703C656.05 117.234 669.086 113.999 684.161 113.999C699.235 113.999 712.239 117.234 723.172 123.703C734.171 130.108 742.646 139.101 748.598 150.682C754.55 162.197 757.526 175.654 757.526 191.052C757.526 206.32 754.55 219.745 748.598 231.326C742.646 242.841 734.171 251.834 723.172 258.304C712.239 264.709 699.235 267.911 684.161 267.911ZM684.355 235.887C691.212 235.887 696.938 233.946 701.532 230.064C706.125 226.117 709.586 220.748 711.915 213.955C714.309 207.161 715.506 199.43 715.506 190.761C715.506 182.092 714.309 174.36 711.915 167.567C709.586 160.774 706.125 155.404 701.532 151.458C696.938 147.511 691.212 145.538 684.355 145.538C677.432 145.538 671.609 147.511 666.887 151.458C662.228 155.404 658.703 160.774 656.309 167.567C653.98 174.36 652.815 182.092 652.815 190.761C652.815 199.43 653.98 207.161 656.309 213.955C658.703 220.748 662.228 226.117 666.887 230.064C671.609 233.946 677.432 235.887 684.355 235.887ZM918.572 115.94L866.459 265H819.877L767.764 115.94H811.434L842.392 222.592H843.944L874.805 115.94H918.572ZM1002.85 267.911C987.522 267.911 974.324 264.806 963.261 258.595C952.262 252.32 943.787 243.456 937.835 232.005C931.883 220.489 928.907 206.87 928.907 191.149C928.907 175.816 931.883 162.359 937.835 150.779C943.787 139.198 952.165 130.173 962.97 123.703C973.839 117.234 986.584 113.999 1001.21 113.999C1011.04 113.999 1020.19 115.584 1028.67 118.754C1037.21 121.859 1044.65 126.55 1050.99 132.825C1057.39 139.101 1062.38 146.994 1065.93 156.504C1069.49 165.95 1071.27 177.013 1071.27 189.693V201.048H945.404V175.428H1032.36C1032.36 169.476 1031.06 164.203 1028.47 159.61C1025.89 155.016 1022.3 151.426 1017.7 148.838C1013.17 146.185 1007.9 144.859 1001.88 144.859C995.609 144.859 990.045 146.315 985.193 149.226C980.405 152.072 976.653 155.922 973.936 160.774C971.218 165.562 969.827 170.899 969.763 176.787V201.145C969.763 208.52 971.121 214.893 973.839 220.262C976.62 225.632 980.535 229.773 985.581 232.684C990.627 235.596 996.612 237.051 1003.53 237.051C1008.13 237.051 1012.33 236.404 1016.15 235.11C1019.97 233.816 1023.23 231.875 1025.95 229.288C1028.67 226.7 1030.74 223.53 1032.16 219.777L1070.4 222.3C1068.46 231.487 1064.48 239.51 1058.46 246.367C1052.51 253.161 1044.81 258.466 1035.36 262.283C1025.98 266.035 1015.15 267.911 1002.85 267.911ZM1139.59 178.824V265H1098.25V115.94H1137.65V142.239H1139.4C1142.7 133.569 1148.23 126.712 1155.99 121.665C1163.75 116.554 1173.17 113.999 1184.23 113.999C1194.58 113.999 1203.61 116.263 1211.31 120.792C1219.01 125.321 1224.99 131.79 1229.26 140.201C1233.53 148.547 1235.66 158.51 1235.66 170.09V265H1194.32V177.466C1194.39 168.344 1192.06 161.227 1187.34 156.116C1182.61 150.94 1176.11 148.352 1167.83 148.352C1162.27 148.352 1157.35 149.549 1153.08 151.943C1148.87 154.337 1145.58 157.83 1143.18 162.424C1140.85 166.953 1139.66 172.42 1139.59 178.824ZM1347.53 115.94V146.994H1257.77V115.94H1347.53ZM1278.15 80.2272H1319.49V219.195C1319.49 223.012 1320.07 225.988 1321.23 228.123C1322.4 230.193 1324.02 231.649 1326.09 232.49C1328.22 233.331 1330.68 233.752 1333.46 233.752C1335.4 233.752 1337.34 233.59 1339.28 233.266C1341.22 232.878 1342.71 232.587 1343.75 232.393L1350.25 263.156C1348.18 263.803 1345.27 264.547 1341.52 265.388C1337.76 266.294 1333.2 266.844 1327.83 267.038C1317.87 267.426 1309.14 266.1 1301.63 263.059C1294.19 260.018 1288.4 255.296 1284.26 248.891C1280.12 242.486 1278.08 234.399 1278.15 224.629V80.2272ZM1374.46 265V115.94H1414.54V141.948H1416.09C1418.81 132.696 1423.37 125.709 1429.78 120.986C1436.18 116.198 1443.56 113.805 1451.9 113.805C1453.97 113.805 1456.21 113.934 1458.6 114.193C1460.99 114.452 1463.1 114.807 1464.91 115.26V151.943C1462.97 151.361 1460.28 150.843 1456.85 150.39C1453.42 149.938 1450.29 149.711 1447.44 149.711C1441.36 149.711 1435.92 151.037 1431.14 153.69C1426.41 156.278 1422.66 159.901 1419.88 164.559C1417.16 169.217 1415.8 174.587 1415.8 180.668V265H1374.46ZM1546.69 267.911C1531.62 267.911 1518.58 264.709 1507.58 258.304C1496.65 251.834 1488.21 242.841 1482.25 231.326C1476.3 219.745 1473.33 206.32 1473.33 191.052C1473.33 175.654 1476.3 162.197 1482.25 150.682C1488.21 139.101 1496.65 130.108 1507.58 123.703C1518.58 117.234 1531.62 113.999 1546.69 113.999C1561.77 113.999 1574.77 117.234 1585.7 123.703C1596.7 130.108 1605.18 139.101 1611.13 150.682C1617.08 162.197 1620.06 175.654 1620.06 191.052C1620.06 206.32 1617.08 219.745 1611.13 231.326C1605.18 242.841 1596.7 251.834 1585.7 258.304C1574.77 264.709 1561.77 267.911 1546.69 267.911ZM1546.89 235.887C1553.74 235.887 1559.47 233.946 1564.06 230.064C1568.66 226.117 1572.12 220.748 1574.45 213.955C1576.84 207.161 1578.04 199.43 1578.04 190.761C1578.04 182.092 1576.84 174.36 1574.45 167.567C1572.12 160.774 1568.66 155.404 1564.06 151.458C1559.47 147.511 1553.74 145.538 1546.89 145.538C1539.96 145.538 1534.14 147.511 1529.42 151.458C1524.76 155.404 1521.23 160.774 1518.84 167.567C1516.51 174.36 1515.35 182.092 1515.35 190.761C1515.35 199.43 1516.51 207.161 1518.84 213.955C1521.23 220.748 1524.76 226.117 1529.42 230.064C1534.14 233.946 1539.96 235.887 1546.89 235.887Z" fill="#151D27"/>
<path d="M299 36L264.689 94.8197H128.668L84.5534 170.795L55.0609 119.456C52.8431 115.596 52.8938 110.836 55.1935 107.023L87.3115 53.7748C93.9654 42.7435 105.908 36 118.791 36H299Z" fill="#4A02C8"/>
<path d="M0 205.107L33.0861 146.287L85.7787 236.967L52.6926 295.787L0 205.107Z" fill="url(#paint0_linear_2008_18)"/>
<path d="M181.36 183.049L115.188 295.787H52.6924L115.188 179.373L181.36 183.049Z" fill="#4A02C8"/>
<g filter="url(#filter0_d_2008_18)">
<path d="M247.533 127.906L213.221 185.5C142.548 183.756 114.776 188.225 98.0327 211.234L129.449 153.495C138.031 137.723 154.549 127.906 172.505 127.906H247.533Z" fill="url(#paint1_linear_2008_18)"/>
</g>
<defs>
<filter id="filter0_d_2008_18" x="88.2294" y="127.906" width="169.107" height="102.934" filterUnits="userSpaceOnUse" color-interpolation-filters="sRGB">
<feFlood flood-opacity="0" result="BackgroundImageFix"/>
<feColorMatrix in="SourceAlpha" type="matrix" values="0 0 0 0 0 0 0 0 0 0 0 0 0 0 0 0 0 0 127 0" result="hardAlpha"/>
<feOffset dy="9.80328"/>
<feGaussianBlur stdDeviation="4.90164"/>
<feComposite in2="hardAlpha" operator="out"/>
<feColorMatrix type="matrix" values="0 0 0 0 0 0 0 0 0 0 0 0 0 0 0 0 0 0 0.25 0"/>
<feBlend mode="normal" in2="BackgroundImageFix" result="effect1_dropShadow_2008_18"/>
<feBlend mode="normal" in="SourceGraphic" in2="effect1_dropShadow_2008_18" result="shape"/>
</filter>
<linearGradient id="paint0_linear_2008_18" x1="15.9303" y1="173.246" x2="67.3975" y2="283.533" gradientUnits="userSpaceOnUse">
<stop stop-color="#4B03C9"/>
<stop offset="1" stop-color="#3D01A7"/>
</linearGradient>
<linearGradient id="paint1_linear_2008_18" x1="219.348" y1="164.668" x2="120.09" y2="174.471" gradientUnits="userSpaceOnUse">
<stop stop-color="#F95F3D"/>
<stop offset="1" stop-color="#F76540"/>
</linearGradient>
</defs>
</svg>
